<svg xmlns="http://www.w3.org/2000/svg" width="1600" height="900"><rect width="100%" height="100%" fill="#f7fbff"/><style>text{font-family:Arial;fill:#102a43}.b{fill:#fff;stroke:#c9daea;stroke-width:3}.t{font-size:25px}.a{stroke:#1d63d5;stroke-width:8}</style><text x="800" y="90" text-anchor="middle" font-size="54" font-weight="700" direction="rtl">تدفق البيانات التقنية</text><g><rect class="b" x="80" y="190" width="300" height="130" rx="25"/><rect class="b" x="480" y="190" width="300" height="130" rx="25"/><rect class="b" x="880" y="190" width="300" height="130" rx="25"/><text class="t" x="230" y="265" text-anchor="middle">Synthetic campaigns</text><text class="t" x="630" y="265" text-anchor="middle">Feature engineering</text><text class="t" x="1030" y="265" text-anchor="middle">Offer model</text><path class="a" d="M380 255h100M780 255h100"/></g><g><rect class="b" x="80" y="430" width="300" height="130" rx="25"/><rect class="b" x="480" y="430" width="300" height="130" rx="25"/><rect class="b" x="880" y="430" width="300" height="130" rx="25"/><text class="t" x="230" y="505" text-anchor="middle">Synthetic transactions</text><text class="t" x="630" y="505" text-anchor="middle">Behavior features</text><text class="t" x="1030" y="505" text-anchor="middle">Purchase model</text><path class="a" d="M380 495h100M780 495h100"/></g><rect x="1200" y="300" width="320" height="330" rx="35" fill="#102a43"/><text x="1360" y="440" font-size="28" fill="white" text-anchor="middle">Personalized</text><text x="1360" y="485" font-size="28" fill="white" text-anchor="middle">orchestrator</text><text x="1360" y="555" font-size="30" fill="#f06f61" text-anchor="middle">→ NAMO</text></svg>
